HIERARCHY
ROOT Hips
{
  OFFSET 15.2305 99.4777 14.5608
  CHANNELS 6 Xposition Yposition Zposition Zrotation Xrotation Yrotation
  JOINT ToSpine
  {
    OFFSET -0.0105055 1.38907 -7.13956
    CHANNELS 3 Zrotation Xrotation Yrotation
    JOINT Spine
    {
      OFFSET 0.0105055 10 1
      CHANNELS 3 Zrotation Xrotation Yrotation
      JOINT Spine1
      {
        OFFSET 0 12 1.60637
        CHANNELS 3 Zrotation Xrotation Yrotation
        JOINT Neck
        {
          OFFSET 0 27 2.26658
          CHANNELS 3 Zrotation Xrotation Yrotation
          JOINT Head
          {
            OFFSET 0 9 2.12705
            CHANNELS 3 Zrotation Xrotation Yrotation
            End Site
            {
              OFFSET 0 11 2
            }
          }
        }
        JOINT LeftShoulder
        {
          OFFSET 8 19.6109 2.86452
          CHANNELS 3 Zrotation Xrotation Yrotation
          JOINT LeftArm
          {
            OFFSET 12 1 0.681055
            CHANNELS 3 Zrotation Xrotation Yrotation
            JOINT LeftForeArm
            {
              OFFSET 19 0 -1.52608
              CHANNELS 3 Zrotation Xrotation Yrotation
              JOINT LeftHand
              {
                OFFSET 23 0 0
                CHANNELS 3 Zrotation Xrotation Yrotation
                End Site
                {
                  OFFSET 10 0 0
                }
              }
            }
          }
        }
        JOINT RightShoulder
        {
          OFFSET -8 19.6109 2.86452
          CHANNELS 3 Zrotation Xrotation Yrotation
          JOINT RightArm
          {
            OFFSET -12 1 0.681055
            CHANNELS 3 Zrotation Xrotation Yrotation
            JOINT RightForeArm
            {
              OFFSET -19 0 -1.52608
              CHANNELS 3 Zrotation Xrotation Yrotation
              JOINT RightHand
              {
                OFFSET -23 0 0
                CHANNELS 3 Zrotation Xrotation Yrotation
                End Site
                {
                  OFFSET -10 0 0
                }
              }
            }
          }
        }
      }
    }
  }
  JOINT LeftUpLeg
  {
    OFFSET 9 -7.17245 0
    CHANNELS 3 Zrotation Xrotation Yrotation
    JOINT LeftLeg
    {
      OFFSET 0 -44.1113 0
      CHANNELS 3 Zrotation Xrotation Yrotation
      JOINT LeftFoot
      {
        OFFSET 0 -36.1829 0
        CHANNELS 3 Zrotation Xrotation Yrotation
        JOINT LeftToeBase
        {
          OFFSET 0 -4.84184 13
          CHANNELS 3 Zrotation Xrotation Yrotation
          End Site
          {
            OFFSET 0 1 6
          }
        }
      }
    }
  }
  JOINT RightUpLeg
  {
    OFFSET -9 -7.17245 0
    CHANNELS 3 Zrotation Xrotation Yrotation
    JOINT RightLeg
    {
      OFFSET 0 -44.0551 0
      CHANNELS 3 Zrotation Xrotation Yrotation
      JOINT RightFoot
      {
        OFFSET 0 -36.1469 0
        CHANNELS 3 Zrotation Xrotation Yrotation
        JOINT RightToeBase
        {
          OFFSET 0 -4.92256 13
          CHANNELS 3 Zrotation Xrotation Yrotation
          End Site
          {
            OFFSET 0 1 6
          }
        }
      }
    }
  }
}
MOTION
Frames:	12
Frame Time:	0.0333333
1.1823 93.8771 148.214 -1.20059 -3.03128 -2.32177 0 0 0 18.2202 2.58973 2.70407 -16.9892 6.16047 6.55242 2.2637 10.5518 -1.60377 -1.46422 -5.90066 -0.495673 -35.4969 3.44889 -4.77925 -41.9163 2.37302 -0.92881 -2.13673 -13.9863 -8.48434 -10.3519 0.332982 -3.66816 23.2503 6.12458 17.0299 39.2072 16.7747 13.1746 2.80106 -5.22891 16.48 2.23184 0.0902987 4.64422 -2.01556 -19.5132 1.66072 -2.67351 3.90659 -2.22993 3.16134 -0.950025 0.0294726 0.949472 0.0726156 -3.97297 4.44619 16.6326 -8.61187 0.675383 12.3815 6.90713 -23.3626 -15.6924 -3.26533 5.1145 -19.7847 -4.75239 
1.26348 94.1289 151.423 0.158808 -2.64588 -2.65068 0 0 0 16.4833 1.19276 2.98424 -17.1719 7.17434 6.93646 2.22513 10.8002 -1.41266 -1.33362 -5.69974 -0.332041 -35.9898 3.40523 -4.57695 -41.9383 2.78085 -0.168707 -2.17212 -14.123 -7.70679 -10.1528 0.331127 -3.7333 23.7066 6.28507 17.2604 40.2462 17.0372 12.1419 2.70294 -4.89235 16.5816 2.50157 0.091924 4.20293 -3.55363 -19.5501 1.10395 -2.69989 5.50832 -1.58871 2.36476 4.49648 -0.0936809 1.19469 -0.0300386 -4.97637 3.13745 19.5068 -8.80756 0.343876 9.04951 7.27977 -22.6182 -12.8497 -2.57817 5.80202 -22.4873 -4.21596 
1.4226 94.4625 154.995 1.54072 -2.75021 -3.25434 0 0 0 15.3258 -0.441303 3.31241 -18.0239 8.80529 7.57476 2.58585 10.6089 -1.41591 -1.54834 -5.04049 -0.150654 -36.2826 3.37095 -4.43924 -41.7581 3.44996 0.365678 -2.40661 -15.7496 -6.40646 -10.5189 0.294127 -3.19526 24.0154 6.34692 17.2606 41.9198 17.2521 11.3757 2.75079 -4.07337 15.5512 2.44189 0.0897448 4.16887 -5.13712 -19.3682 0.871214 -2.96914 8.29858 -1.52729 1.45521 5.77206 -0.0740825 0.749166 2.28465 -3.49272 1.3986 22.2096 -9.15335 0.00777987 7.20529 8.17484 -21.576 -8.94079 -1.71076 7.075 -26.8871 -2.82793 
1.47949 94.6515 158.818 3.16189 -3.1948 -3.62648 0 0 0 14.0537 -2.18431 3.63503 -19.0844 10.3013 8.20498 3.40178 11.108 -1.48291 -1.76115 -5.1593 0.149075 -35.5849 3.40214 -4.64923 -42.2145 3.02456 0.744836 -2.15794 -16.1852 -4.47444 -10.0616 0.297994 -3.3872 24.4846 6.44545 17.2773 44.2324 17.1158 10.1437 3.18497 -3.94458 13.8916 3.14923 0.143737 5.2433 -6.71755 -18.7865 0.607608 -3.60614 12.7741 -1.66541 1.42113 5.19629 -0.0692595 0.673547 3.80951 -3.38152 -0.925455 23.1755 -9.69858 -0.690431 10.0073 9.4746 -19.2405 -6.26747 -1.06129 8.51054 -30.9682 -0.868542 
1.54173 94.9471 162.478 4.4551 -3.98801 -3.51921 0 0 0 12.2626 -2.88556 3.52417 -19.0975 10.9943 8.13892 4.41434 11.364 -1.69916 -2.68857 -4.86715 0.510843 -35.1614 3.38152 -4.68512 -42.4028 2.72609 1.05735 -1.97822 -16.9811 -2.87438 -10.7182 0.275624 -2.93599 25.0129 6.4994 17.1147 46.4014 16.7388 8.60398 3.61755 -4.3074 12.6122 3.65185 0.162528 5.08317 -8.02537 -17.5091 0.700187 -4.15156 16.8947 -2.26443 0.236811 1.0962 -0.0010224 0.441839 8.4784 -3.20037 -3.21059 22.9395 -9.60085 -1.06203 15.534 10.4337 -17.694 -3.148 -0.492081 9.73446 -33.5635 1.37297 
1.6732 95.2803 165.912 5.48201 -5.10199 -4.11983 0 0 0 10.8493 -2.61132 3.51508 -19.0447 10.9928 8.08098 4.99094 12.0197 -1.65291 -3.22574 -4.78837 0.912335 -35.0165 3.44934 -4.87878 -42.3165 2.43107 1.73238 -1.91604 -17.5306 -2.3293 -10.9086 0.254592 -2.66546 25.138 6.62807 17.4366 48.7117 16.3992 6.67706 3.44548 -2.64046 11.6459 3.55777 0.143877 4.62638 -8.81907 -14.8404 1.66836 -4.79319 18.894 -2.31273 -0.336974 -2.61038 -0.00744499 0.754191 9.63845 -4.31228 -6.14637 21.1743 -7.56186 -0.770029 24.2013 11.4531 -15.5453 -0.774667 -0.103325 9.67811 -32.6615 2.57045 
1.76926 95.7321 169.083 6.21957 -5.89032 -5.04566 0 0 0 9.63975 -2.24523 3.56002 -18.8398 10.949 8.09963 5.73046 12.0787 -1.51546 -3.5138 -4.55347 1.41292 -34.655 3.48601 -5.04423 -42.3307 2.45484 1.2016 -1.74567 -17.2634 -1.18424 -10.977 0.257011 -2.67686 25.6803 6.76876 17.53 49.6735 16.8504 5.08289 3.79794 -2.91424 11.1327 3.84081 0.159396 4.72346 -9.34175 -11.5418 2.56677 -5.42568 18.3737 -1.69874 -0.80793 -4.85504 -0.0334232 1.03412 9.89506 -5.21294 -8.98663 17.7392 -5.5681 0.127743 34.2795 12.4693 -14.3607 2.05931 0.26107 7.7092 -27.3801 1.13746 
1.78366 96.1824 172.013 6.16639 -6.42864 -6.28561 0 0 0 8.91049 -1.7813 3.48062 -18.2104 10.7982 7.86361 6.44478 12.1708 -1.33083 -4.02896 -4.65982 1.98617 -34.3501 3.50632 -5.15934 -42.2086 3.5315 0.185712 -1.8291 -18.3243 -0.227033 -10.468 0.271944 -2.96672 25.9324 6.88038 17.7137 50.5069 16.9481 3.73496 3.79003 -2.56993 11.0681 1.94855 0.0779398 4.57395 -9.30231 -8.3632 3.11591 -5.68169 17.1861 -1.2001 -0.830699 -6.54591 -0.0477739 1.1554 9.51372 -5.57574 -10.7111 13.1668 -5.19362 -0.0433267 43.7033 15.2233 -13.4747 7.30929 0.859554 5.70157 -21.5974 -2.84017 
1.77187 96.3383 174.438 6.3875 -6.57853 -7.6069 0 0 0 6.92671 -0.489312 3.2904 -16.2128 9.616 7.0466 5.81013 12.0599 -0.477436 -3.60579 -4.90374 2.50969 -34.9284 3.57581 -5.20501 -41.5252 4.16075 -0.965388 -1.87092 -17.9959 0.282609 -10.1319 0.24471 -2.75832 25.4752 6.96533 18.2538 51.489 16.3619 2.24995 3.65715 -2.69231 11.3806 2.48831 0.111564 5.16627 -9.98815 -6.55541 3.032 -5.38803 16.9492 -0.0308959 -0.476718 -8.36418 -0.034913 1.21085 9.85027 -5.76939 -11.9269 7.32372 -3.52547 -0.00646116 52.5304 15.5572 -12.4004 8.80473 0.950981 5.35531 -20.5637 -3.89617 
1.64499 96.3407 176.659 6.41821 -6.75718 -8.4609 0 0 0 5.0767 0.820079 2.85121 -14.6181 8.60652 6.00339 5.83003 11.9763 0.250254 -3.33353 -4.88584 3.20611 -34.5235 3.67734 -5.54068 -41.4571 4.3214 -1.75578 -2.08442 -17.2299 -0.717906 -9.82688 0.190327 -2.21523 25.9083 7.25493 18.8524 51.6287 15.671 0.742352 3.65189 -3.80327 12.0777 2.30731 0.111478 5.61067 -10.5352 -5.10835 3.07038 -5.0169 17.3767 0.152193 1.18561 -9.63199 0.103224 0.973677 8.74342 -4.93921 -12.0413 2.19521 -2.09853 -0.0155867 58.5458 15.1195 -15.3898 3.65252 0.489235 5.38673 -20.6933 -3.88008 
1.41589 96.3672 179.059 5.16502 -7.12705 -8.85168 0 0 0 4.04221 1.25101 2.31011 -12.6115 9.15564 4.82572 6.90237 11.6832 0.498836 -3.99346 -4.95535 3.99156 -34.3069 3.61513 -5.43962 -39.9114 8.90762 -4.69798 -2.76706 -19.4962 0.278176 -9.85104 0.171259 -1.99295 25.8227 6.58236 16.8805 50.7863 16.7482 1.87926 3.80673 -3.49487 11.9048 3.09216 0.126536 4.66772 -9.79473 -3.15909 3.83276 -4.39478 18.139 -0.557157 3.72251 -11.2581 0.365528 0.886795 6.81232 -4.4971 -10.2312 -1.51604 -0.977357 -0.00830574 60.7114 12.292 -17.6697 -2.36332 -0.366114 5.42078 -20.8155 -3.81815 
1.09759 96.4137 181.235 4.30459 -6.9443 -8.70419 0 0 0 2.71145 2.1185 1.8257 -10.6439 8.43937 3.7232 8.28466 11.7826 0.283191 -4.7338 -5.21241 4.45875 -32.9747 3.66014 -5.85692 -39.7045 9.87678 -7.70999 -2.89209 -18.3148 0.957156 -9.34686 0.26295 -3.1924 26.1707 6.45299 16.2798 50.6315 15.753 1.13955 3.54396 -3.53378 12.481 2.69907 0.114795 4.86844 -9.07088 -1.96554 4.42564 -3.92353 18.9784 -1.70646 4.93255 -12.5013 0.539957 0.63282 5.40214 -3.45542 -8.26931 -5.63227 -0.0840245 0.0310243 60.5235 6.90757 -18.5585 -7.85537 -1.27768 5.30058 -20.3389 -3.86508 
